<?xml version="1.0" standalone="no"?>
<!DOCTYPE svg PUBLIC "-//W3C//DTD SVG 20010904//EN"
 "http://www.w3.org/TR/2001/REC-SVG-20010904/DTD/svg10.dtd">
<svg version="1.0" xmlns="http://www.w3.org/2000/svg"
 width="500.000000pt" height="500.000000pt" viewBox="0 0 500.000000 500.000000"
 preserveAspectRatio="xMidYMid meet">
<metadata>
Created by potrace 1.14, written by Peter Selinger 2001-2017
</metadata>
<g transform="translate(0.000000,500.000000) scale(0.100000,-0.100000)"
fill="#000000" stroke="none">
<path d="M600 2500 l0 -1900 1900 0 1900 0 0 1900 0 1900 -1900 0 -1900 0 0
-1900z m3780 0 l0 -1880 -1880 0 -1880 0 0 1880 0 1880 1880 0 1880 0 0 -1880z"/>
<path d="M1605 3903 c-80 -17 -157 -52 -198 -91 -70 -65 -90 -169 -49 -249 43
-83 104 -111 392 -183 107 -27 211 -55 230 -64 109 -45 122 -116 22 -116 -24
0 -95 17 -161 40 -144 48 -221 57 -319 36 -116 -24 -187 -84 -213 -180 -16
-55 2 -178 36 -249 32 -70 117 -150 197 -187 114 -53 178 -65 348 -65 134 0
161 3 199 20 43 20 44 23 82 128 21 59 37 107 34 107 -2 0 -19 -9 -37 -20 -72
-42 -150 -53 -333 -47 -181 6 -277 23 -360 61 -98 45 -145 104 -145 181 0 68
35 98 127 111 65 8 135 -7 284 -62 134 -50 247 -66 310 -45 75 25 128 114 108
185 -22 79 -92 117 -337 180 -94 25 -193 54 -220 66 -150 65 -162 205 -22 254
44 16 81 19 180 19 137 -1 236 -18 334 -58 33 -14 65 -27 70 -28 5 -1 20 40
34 92 25 92 25 94 6 108 -81 59 -431 92 -599 56z"/>
<path d="M2641 3905 c-200 -44 -320 -168 -329 -341 -7 -131 38 -232 134 -300
81 -57 187 -90 389 -119 135 -20 249 -49 293 -77 63 -39 80 -118 39 -179 -49
-74 -144 -109 -308 -117 -171 -7 -296 25 -442 113 l-58 35 -15 -35 c-8 -20
-26 -61 -39 -91 l-25 -56 23 -19 c43 -37 183 -99 255 -114 93 -19 219 -19 300
0 131 31 260 122 315 222 53 99 55 238 5 336 -46 91 -164 170 -300 202 -35 8
-132 19 -214 25 -259 19 -329 50 -329 148 0 64 30 103 108 141 86 42 174 55
331 48 136 -5 222 -23 313 -63 29 -12 54 -20 57 -16 7 13 46 162 46 178 0 23
-93 61 -194 79 -108 18 -268 18 -355 0z"/>
<path d="M3625 3904 c-140 -31 -245 -106 -295 -209 -50 -101 -36 -272 29 -361
72 -100 198 -149 521 -199 57 -9 131 -25 165 -36 104 -32 152 -102 126 -182
-29 -87 -141 -137 -327 -145 -160 -6 -241 12 -386 85 -60 31 -110 54 -112 52
-13 -13 -76 -171 -71 -179 13 -21 126 -80 200 -105 98 -33 251 -44 347 -25
149 29 287 124 343 237 38 77 46 194 19 278 -25 81 -101 161 -191 203 -100 46
-168 60 -336 72 -228 16 -299 37 -325 95 -45 99 36 192 200 230 85 19 272 20
370 1 75 -15 183 -51 206 -69 7 -5 15 -7 18 -4 7 7 53 166 54 184 0 18 -68 50
-142 68 -94 24 -327 28 -413 9z"/>
<path d="M980 3323 c0 -566 -1 -589 -20 -620 -26 -43 -73 -67 -121 -60 -28 4
-36 2 -33 -8 15 -38 143 -58 223 -35 42 12 86 52 114 105 22 39 22 48 25 623
l3 582 -96 0 -95 0 0 -587z"/>
<path d="M1481 2345 c-200 -44 -320 -168 -329 -341 -7 -131 38 -232 134 -300
81 -57 187 -90 389 -119 135 -20 249 -49 293 -77 63 -39 80 -118 39 -179 -49
-74 -144 -109 -308 -117 -171 -7 -296 25 -442 113 l-58 35 -15 -35 c-8 -20
-26 -61 -39 -91 l-25 -56 23 -19 c43 -37 183 -99 255 -114 93 -19 219 -19 300
0 131 31 260 122 315 222 53 99 55 238 5 336 -46 91 -164 170 -300 202 -35 8
-132 19 -214 25 -259 19 -329 50 -329 148 0 64 30 103 108 141 86 42 174 55
331 48 136 -5 222 -23 313 -63 29 -12 54 -20 57 -16 7 13 46 162 46 178 0 23
-93 61 -194 79 -108 18 -268 18 -355 0z"/>
<path d="M2180 1695 l0 -655 95 0 95 0 0 315 0 315 270 0 270 0 0 -315 0 -315
95 0 95 0 0 655 0 655 -95 0 -95 0 0 -330 0 -330 -270 0 -270 0 0 330 0 330
-95 0 -95 0 0 -655z"/>
<path d="M3287 2343 c-4 -3 -7 -298 -7 -655 l0 -648 95 0 95 0 0 655 0 655
-88 0 c-49 0 -92 -3 -95 -7z"/>
</g>
</svg>
